<svg width="29" height="29" viewBox="0 0 29 29" fill="none" xmlns="http://www.w3.org/2000/svg">
<path d="M21.5 0.5H3.5C2.70435 0.5 1.94129 0.81607 1.37868 1.37868C0.81607 1.94129 0.5 2.70435 0.5 3.5V24.5C0.5 25.2956 0.81607 26.0587 1.37868 26.6213C1.94129 27.1839 2.70435 27.5 3.5 27.5H15.215C14.675 26.57 14.3 25.55 14.12 24.5H14C11.51 24.5 9.5 22.49 9.5 20C9.5 17.51 11.51 15.5 14 15.5C15.02 15.5 16.01 15.845 16.805 16.475C18.478 14.8888 20.6946 14.0033 23 14C24.575 14 26.135 14.42 27.5 15.215V6.5L21.5 0.5ZM18.5 9.5H3.5V3.5H18.5V9.5ZM21.5 17V21.5H17V24.5H21.5V29H24.5V24.5H29V21.5H24.5V17H21.5Z" fill="#EAEAEA"/>
</svg>
