<svg xmlns="http://www.w3.org/2000/svg" width="38" height="38" viewBox="0 0 38 38" fill="none">
  <path fill-rule="evenodd" clip-rule="evenodd" d="M10.9999 8.75839C11.74 8.26392 12.61 8 13.5 8C14.0714 8 14.5346 8.46322 14.5346 9.03464C14.5346 9.60606 14.0714 10.0693 13.5 10.0693C13.0193 10.0693 12.5493 10.2118 12.1496 10.4789C11.7498 10.746 11.4383 11.1256 11.2543 11.5698C11.0703 12.014 11.0222 12.5027 11.116 12.9742C11.2098 13.4457 11.4413 13.8788 11.7812 14.2188C12.1212 14.5587 12.5543 14.7902 13.0258 14.884C13.4973 14.9778 13.986 14.9297 14.4302 14.7457C14.8744 14.5617 15.254 14.2502 15.5211 13.8504C15.7882 13.4507 15.9307 12.9807 15.9307 12.5C15.9307 11.9286 16.3939 11.4654 16.9654 11.4654C17.5368 11.4654 18 11.9286 18 12.5C18 13.39 17.7361 14.26 17.2416 15.0001C16.7471 15.7401 16.0443 16.3169 15.2221 16.6575C14.3998 16.998 13.495 17.0872 12.6221 16.9135C11.7492 16.7399 10.9474 16.3113 10.318 15.682C9.68868 15.0526 9.2601 14.2508 9.08647 13.3779C8.91283 12.505 9.00195 11.6002 9.34254 10.7779C9.68314 9.95566 10.2599 9.25285 10.9999 8.75839Z" fill="#EAEAEA" stroke="#52FFDF" stroke-width="1.5" stroke-linecap="round" stroke-linejoin="round"/>
  <path fill-rule="evenodd" clip-rule="evenodd" d="M35.9802 14C36.5434 14 37 14.4661 37 15.041V23.7574C37 28.2164 36.1375 31.6085 33.9439 33.8604C31.7489 36.1136 28.4407 37 24.094 37H13.906C9.56063 37 6.25258 36.114 4.05723 33.861C1.86323 31.6094 1 28.2173 1 23.7574V20.2528C1 19.6779 1.45656 19.2118 2.01975 19.2118C2.58295 19.2118 3.03951 19.6779 3.03951 20.2528V23.7574C3.03951 28.014 3.87587 30.7227 5.50321 32.3928C7.12922 34.0615 9.76429 34.9181 13.906 34.9181H24.094C28.2371 34.9181 30.8721 34.0611 32.4977 32.3923C34.1248 30.7221 34.9605 28.0134 34.9605 23.7574V15.041C34.9605 14.4661 35.4171 14 35.9802 14Z" fill="#EAEAEA" stroke="#52FFDF" stroke-width="1.5" stroke-linecap="round" stroke-linejoin="round"/>
  <path fill-rule="evenodd" clip-rule="evenodd" d="M4.09967 4.07527C6.32422 1.86823 9.6763 1 14.0827 1H20.9716C21.5396 1 22 1.45681 22 2.02031C22 2.58381 21.5396 3.04062 20.9716 3.04062H14.0827C9.87924 3.04062 7.20419 3.88106 5.55405 5.51821C3.90392 7.15535 3.05681 9.80935 3.05681 13.9797C3.05681 14.5432 2.59638 15 2.0284 15C1.46043 15 1 14.5432 1 13.9797C1 9.60801 1.87512 6.28231 4.09967 4.07527Z" fill="#EAEAEA" stroke="#52FFDF" stroke-width="1.5" stroke-linecap="round" stroke-linejoin="round"/>
  <path fill-rule="evenodd" clip-rule="evenodd" d="M24 7C24 6.44772 24.4792 6 25.0704 6H34.9296C35.5208 6 36 6.44772 36 7C36 7.55228 35.5208 8 34.9296 8H25.0704C24.4792 8 24 7.55228 24 7Z" fill="#EAEAEA" stroke="#52FFDF" stroke-width="1.5" stroke-linecap="round"/>
  <path fill-rule="evenodd" clip-rule="evenodd" d="M30 1C30.5523 1 31 1.47924 31 2.07041V11.9296C31 12.5208 30.5523 13 30 13C29.4477 13 29 12.5208 29 11.9296V2.07041C29 1.47924 29.4477 1 30 1Z" fill="#EAEAEA" stroke="#52FFDF" stroke-width="1.5" stroke-linecap="round"/>
  <path fill-rule="evenodd" clip-rule="evenodd" d="M29.0496 20.675L21.9723 26.8014L21.9535 26.8173C21.0931 27.5267 20.0135 27.9145 18.8993 27.9145C17.7851 27.9145 16.7055 27.5267 15.8451 26.8173C15.8358 26.8096 15.8267 26.8018 15.8177 26.7939L15.2713 26.3101C14.8139 25.941 14.2519 25.7253 13.6651 25.694C13.0746 25.6624 12.4894 25.8191 11.9934 26.1414L3.59721 31.8241C3.12855 32.1413 2.49204 32.0177 2.17551 31.5481C1.85899 31.0784 1.98232 30.4405 2.45097 30.1233L10.8681 24.4264C11.7295 23.8634 12.7473 23.5897 13.7741 23.6445C14.801 23.6994 15.7839 24.0802 16.5806 24.7318C16.5909 24.7402 16.6011 24.7489 16.6111 24.7578L17.1591 25.2429C17.6508 25.6434 18.2653 25.8622 18.8993 25.8622C19.5351 25.8622 20.1512 25.6422 20.6436 25.2396L27.7209 19.1131L27.7397 19.0972C28.6002 18.3878 29.6797 18 30.7939 18C31.9081 18 32.9877 18.3878 33.8481 19.0972L33.867 19.1132L36.6454 21.5185C37.0734 21.889 37.1206 22.537 36.7509 22.9659C36.3812 23.3947 35.7345 23.4421 35.3066 23.0716L32.5382 20.6749C32.0458 20.2723 31.4297 20.0523 30.7939 20.0523C30.1582 20.0523 29.5421 20.2723 29.0496 20.675Z" fill="#EAEAEA" stroke="#52FFDF" stroke-width="1.5" stroke-linecap="round" stroke-linejoin="round"/>
</svg>