<svg width="40" height="40" viewBox="0 0 40 40" fill="none" xmlns="http://www.w3.org/2000/svg">
<path d="M29.9987 11.6667H9.9987V5H29.9987V11.6667ZM29.9987 20.8333C30.4709 20.8333 30.867 20.6733 31.187 20.3533C31.507 20.0333 31.6665 19.6378 31.6654 19.1667C31.6654 18.6944 31.5054 18.2989 31.1854 17.98C30.8654 17.6611 30.4698 17.5011 29.9987 17.5C29.5265 17.5 29.1309 17.66 28.812 17.98C28.4931 18.3 28.3331 18.6956 28.332 19.1667C28.332 19.6389 28.492 20.035 28.812 20.355C29.132 20.675 29.5276 20.8344 29.9987 20.8333ZM26.6654 31.6667V25H13.332V31.6667H26.6654ZM29.9987 35H9.9987V28.3333H3.33203V18.3333C3.33203 16.9167 3.81814 15.7294 4.79036 14.7717C5.76259 13.8139 6.94314 13.3344 8.33203 13.3333H31.6654C33.082 13.3333 34.2698 13.8128 35.2287 14.7717C36.1876 15.7306 36.6665 16.9178 36.6654 18.3333V28.3333H29.9987V35Z" fill="#EAEAEA"/>
</svg>
