<svg width="24" height="24" viewBox="0 0 24 24" fill="none" xmlns="http://www.w3.org/2000/svg">
<g id="Icon" clip-path="url(#clip0_60_8626)">
<path id="Vector" d="M10.536 0.000480652C8.632 0.000480652 6.856 0.488482 5.208 1.46448C3.624 2.39248 2.368 3.65648 1.44 5.25648C0.48 6.88848 0 8.66048 0 10.5725C0 12.4845 0.48 14.2645 1.44 15.9125C2.384 17.4965 3.648 18.7525 5.232 19.6805C6.88 20.6405 8.66 21.1205 10.572 21.1205C12.484 21.1205 14.256 20.6405 15.888 19.6805C17.488 18.7365 18.752 17.4725 19.68 15.8885C20.64 14.2405 21.12 12.4605 21.12 10.5485C21.12 8.63648 20.632 6.86448 19.656 5.23248C18.728 3.63248 17.464 2.36848 15.864 1.44048C14.232 0.48048 12.456 0.000480652 10.536 0.000480652ZM10.536 19.1765C8.984 19.1765 7.536 18.7845 6.192 18.0005C4.896 17.2325 3.872 16.2005 3.12 14.9045C2.336 13.5605 1.944 12.1085 1.944 10.5485C1.944 8.98848 2.336 7.53648 3.12 6.19248C3.888 4.89648 4.92 3.87248 6.216 3.12048C7.56 2.33648 9.012 1.94448 10.572 1.94448C12.132 1.94448 13.576 2.33648 14.904 3.12048C16.216 3.88848 17.248 4.92048 18 6.21648C18.784 7.56048 19.176 9.01248 19.176 10.5725C19.176 12.1325 18.784 13.5765 18 14.9045C17.232 16.2005 16.192 17.2325 14.88 18.0005C13.552 18.7845 12.104 19.1765 10.536 19.1765ZM23.688 22.3445L18.096 16.7285C17.904 16.5365 17.672 16.4405 17.4 16.4405C17.128 16.4405 16.896 16.5365 16.704 16.7285C16.512 16.9205 16.416 17.1525 16.416 17.4245C16.416 17.6965 16.512 17.9285 16.704 18.1205L22.296 23.7125C22.488 23.8725 22.708 23.9445 22.956 23.9285C23.204 23.9125 23.416 23.8165 23.592 23.6405C23.768 23.4645 23.864 23.2525 23.88 23.0045C23.896 22.7565 23.832 22.5365 23.688 22.3445Z" fill="white"/>
</g>
<defs>
<clipPath id="clip0_60_8626">
<rect width="24" height="24" fill="white" transform="matrix(1 0 0 -1 0 24)"/>
</clipPath>
</defs>
</svg>
