<svg width="45" height="45" viewBox="0 0 45 45" fill="none" xmlns="http://www.w3.org/2000/svg">
<rect width="45" height="45" fill="#EAEAEA"/>
<g clip-path="url(#clip0_60_8550)">
<path d="M30.0891 17.9873C30.0891 18.1826 30.0891 18.3389 30.0891 18.5342C30.0891 23.9639 25.9875 30.1748 18.4484 30.1748C16.1047 30.1748 13.9563 29.5107 12.1594 28.3389C12.4719 28.3779 12.7844 28.417 13.1359 28.417C15.05 28.417 16.8078 27.7529 18.2141 26.6592C16.4172 26.6201 14.8938 25.4482 14.3859 23.8076C14.6594 23.8467 14.8938 23.8857 15.1672 23.8857C15.5188 23.8857 15.9094 23.8076 16.2219 23.7295C14.3469 23.3389 12.9406 21.6982 12.9406 19.7061V19.667C13.4875 19.9795 14.1516 20.1357 14.8156 20.1748C13.6828 19.4326 12.9797 18.1826 12.9797 16.7764C12.9797 15.9951 13.175 15.292 13.5266 14.7061C15.5578 17.167 18.6047 18.8076 22.0031 19.0029C21.925 18.6904 21.8859 18.3779 21.8859 18.0654C21.8859 15.7998 23.7219 13.9639 25.9875 13.9639C27.1594 13.9639 28.2141 14.4326 28.9953 15.2529C29.8938 15.0576 30.7922 14.7061 31.5734 14.2373C31.2609 15.2139 30.6359 15.9951 29.7766 16.5029C30.5969 16.4248 31.4172 16.1904 32.1203 15.8779C31.5734 16.6982 30.8703 17.4014 30.0891 17.9873Z" fill="#1D9BF0"/>
</g>
<defs>
<clipPath id="clip0_60_8550">
<rect width="20.45" height="44" fill="white" transform="matrix(1 0 0 -1 12.2695 44)"/>
</clipPath>
</defs>
</svg>
