<svg width="10" height="11" viewBox="0 0 10 11" fill="none" xmlns="http://www.w3.org/2000/svg">
<path id="Vector" fill-rule="evenodd" clip-rule="evenodd" d="M4.63063 9.26055L2.50831 10.4265C2.22163 10.584 1.86706 10.4689 1.71634 10.1693C1.65633 10.05 1.63562 9.91335 1.65742 9.78051L2.06275 7.3109C2.09538 7.1121 2.03231 6.90925 1.89409 6.76846L0.177096 5.01947C-0.0548284 4.78323 -0.059574 4.39524 0.166497 4.15287C0.256519 4.05636 0.374476 3.99355 0.502105 3.97417L2.87494 3.61386C3.06594 3.58486 3.23106 3.45949 3.31648 3.27862L4.37765 1.03169C4.52098 0.728184 4.87262 0.603572 5.16306 0.753361C5.27871 0.813008 5.37232 0.910832 5.4294 1.03169L6.49056 3.27862C6.57598 3.45949 6.7411 3.58486 6.93211 3.61386L9.30494 3.97417C9.62545 4.02284 9.84752 4.33382 9.80095 4.66876C9.7824 4.80213 9.7223 4.9254 9.62995 5.01947L7.91295 6.76846C7.77474 6.90925 7.71166 7.1121 7.74429 7.3109L8.14962 9.78051C8.20437 10.1141 7.98998 10.4309 7.67076 10.4881C7.54365 10.5109 7.41289 10.4893 7.29874 10.4265L5.17641 9.26055C5.00557 9.16669 4.80147 9.16669 4.63063 9.26055Z" fill="#DF62DF"/>
</svg>
